# xmcd
#
# Track frame offsets: 
#        150
#        16307
#        27087
#        40253
#        53808
#        70121
#        83460
#        95209
#        105980
#        121415
#        129660
#        142594
#        154529
#        164600
#        175670
#        185076
#        195460
#        205005
#        219656
#        230795
#        241260
#        253524
#        269097
#        283353
#        296409
#
# Disc length: 4197 seconds
#
# Revision: 0
# Processed by: cddbd v1.4PL0 Copyright (c) Steve Scherf et al.
# Submitted via: ExactAudioCopy v0.90b4
#
DISCID=67106319
DTITLE=Wabi Ryvola - Loudavy navraty CD1
DYEAR=2003
DGENRE=Folk
TTITLE0=Letokruhy
TTITLE1=Rychle sipy
TTITLE2=Tak uz mi ma holka mava
TTITLE3=Hubenej claim
TTITLE4=Verim
TTITLE5=Ohrada
TTITLE6=Proklata Fordka
TTITLE7=Hobo
TTITLE8=Cesta zpatky
TTITLE9=Hejno vran
TTITLE10=Desperat
TTITLE11=Taborovy ohen
TTITLE12=Posledni Jumbo Jet
TTITLE13=Samota
TTITLE14=Blacky Joe
TTITLE15=Dalka
TTITLE16=Jsem nejkrasnejsi
TTITLE17=Rezavy sporny
TTITLE18=Slet divnejch ptaku
TTITLE19=Zpoved
TTITLE20=Vracim se, vracim
TTITLE21=Sestactyricatej
TTITLE22=Cas odjezdu
TTITLE23=Zvlastni znameni Woodcraft
TTITLE24=Tereza
EXTD=
EXTT0=
EXTT1=
EXTT2=
EXTT3=
EXTT4=
EXTT5=
EXTT6=
EXTT7=
EXTT8=
EXTT9=
EXTT10=
EXTT11=
EXTT12=
EXTT13=
EXTT14=
EXTT15=
EXTT16=
EXTT17=
EXTT18=
EXTT19=
EXTT20=
EXTT21=
EXTT22=
EXTT23=
EXTT24=
PLAYORDER=
